<?xml version="1.0"?><svg viewBox="0 0 64 64" xmlns="http://www.w3.org/2000/svg"><g id="Outline"><g data-name="Outline" id="Outline-2"><path d="M21,22a4,4,0,0,0,4-4V11a1,1,0,0,0-2,0v7a2,2,0,0,1-4,0,1,1,0,0,0-2,0A4,4,0,0,0,21,22Z"/><path d="M43,42a2,2,0,0,1-2-2V38a4,4,0,0,0-4-4,1,1,0,0,0,0,2,2,2,0,0,1,2,2v2a4,4,0,0,0,1.36,3A4,4,0,0,0,39,46v2a2,2,0,0,1-2,2,1,1,0,0,0,0,2,4,4,0,0,0,4-4V46a2,2,0,0,1,2-2,1,1,0,0,0,0-2Z"/><path d="M21,38a2,2,0,0,1,2-2,1,1,0,0,0,0-2,4,4,0,0,0-4,4v2a2,2,0,0,1-2,2,1,1,0,0,0,0,2,2,2,0,0,1,2,2v2a4,4,0,0,0,4,4,1,1,0,0,0,0-2,2,2,0,0,1-2-2V46a4,4,0,0,0-1.36-3A4,4,0,0,0,21,40Z"/><circle cx="30" cy="40" r="1"/><path d="M30,45a1,1,0,0,0-1,1,1,1,0,0,1-1,1,1,1,0,0,0,0,2,3,3,0,0,0,3-3A1,1,0,0,0,30,45Z"/><path d="M31.5,20H30a1,1,0,0,1-1-1,1,1,0,0,0-2,0,3,3,0,0,0,3,3h1.5a3.5,3.5,0,0,0,0-7h-1a1.5,1.5,0,0,1,0-3H32a1,1,0,0,1,1,1,1,1,0,0,0,2,0,3,3,0,0,0-3-3H30.5a3.5,3.5,0,0,0,0,7h1a1.5,1.5,0,0,1,0,3Z"/><circle cx="53" cy="43" r="1"/><path d="M57,2H11a1,1,0,0,0-1,1V6H7A1,1,0,0,0,6,7V61a1,1,0,0,0,1,1H53a1,1,0,0,0,1-1V58h3a1,1,0,0,0,1-1V3A1,1,0,0,0,57,2ZM42,8v7a3,3,0,0,0,3,3h7v6H8V8Zm2,1.41L50.59,16H45a1,1,0,0,1-1-1ZM56,56H54V47a1,1,0,0,0-2,0V60H8V26H52V39a1,1,0,0,0,2,0V17a1,1,0,0,0-.29-.71l-10-10A1,1,0,0,0,43,6H12V4H56Z"/></g></g></svg>