<?xml version="1.0"?><svg viewBox="0 0 64 64" xmlns="http://www.w3.org/2000/svg"><g id="Outline"><g data-name="Outline" id="Outline-2"><path d="M22,22a1,1,0,0,0,1-1V17h4v4a1,1,0,0,0,2,0V11a1,1,0,0,0-2,0v4H23V11a1,1,0,0,0-2,0V21A1,1,0,0,0,22,22Z"/><path d="M22.7,34.2a1,1,0,0,0-1.4.19l-6.1,8a1,1,0,0,0,0,1.22l6.1,8a1,1,0,0,0,1.4.19,1,1,0,0,0,.19-1.41L17.26,43l5.63-7.39A1,1,0,0,0,22.7,34.2Z"/><path d="M38.69,34.39a1,1,0,0,0-1.41-.18,1,1,0,0,0-.18,1.4L42.74,43,37.1,50.39a1,1,0,0,0,.18,1.4,1,1,0,0,0,1.41-.18l6.1-8a1,1,0,0,0,0-1.22Z"/><circle cx="30" cy="50.5" r="1"/><path d="M12,22a1,1,0,0,0,1-1V17h2.5a3.5,3.5,0,0,0,0-7H12a1,1,0,0,0-1,1V21A1,1,0,0,0,12,22Zm1-10h2.5a1.5,1.5,0,0,1,0,3H13Z"/><path d="M32,22a1,1,0,0,0,1-1V17h2.5a3.5,3.5,0,0,0,0-7H32a1,1,0,0,0-1,1V21A1,1,0,0,0,32,22Zm1-10h2.5a1.5,1.5,0,0,1,0,3H33Z"/><path d="M31.17,35.63A5,5,0,0,0,25,40.5a1,1,0,0,0,2,0,3,3,0,1,1,4,2.83,2.91,2.91,0,0,0-2,2.74v.43a1,1,0,0,0,2,0v-.43a1,1,0,0,1,.68-.86,5,5,0,0,0,3.19-5.88A5,5,0,0,0,31.17,35.63Z"/><circle cx="53" cy="43" r="1"/><path d="M57,2H11a1,1,0,0,0-1,1V6H7A1,1,0,0,0,6,7V61a1,1,0,0,0,1,1H53a1,1,0,0,0,1-1V58h3a1,1,0,0,0,1-1V3A1,1,0,0,0,57,2ZM42,8v7a3,3,0,0,0,3,3h7v6H8V8Zm2,1.41L50.59,16H45a1,1,0,0,1-1-1ZM56,56H54V47a1,1,0,0,0-2,0V60H8V26H52V39a1,1,0,0,0,2,0V17a1,1,0,0,0-.29-.71l-10-10A1,1,0,0,0,43,6H12V4H56Z"/></g></g></svg>